<svg width="83" height="87" viewBox="0 0 83 87" fill="none" xmlns="http://www.w3.org/2000/svg">
<path d="M63.5733 8.81726H21.7305V17.5881H63.5733V8.81726Z" fill="#DBDBDC"/>
<path d="M63.5801 34.9908V35.11C63.5822 35.0703 63.5822 35.0305 63.5801 34.9908V34.9908Z" fill="#DBDBDC"/>
<path d="M71.4356 71.6112L64.5251 77.0698L53.0141 62.6283C49.0936 67.037 44.2768 70.5669 38.8826 72.9845C33.4884 75.4022 27.6397 76.6524 21.7235 76.6525V67.9015C30.4693 67.8876 38.8544 64.4317 45.0485 58.2881C51.2427 52.1446 54.7429 43.8123 54.785 35.11H13.4082V26.359H63.573V35.11C63.5616 42.1245 61.7562 49.0207 58.3269 55.1492L71.4356 71.6112Z" fill="#DBDBDC"/>
</svg>
